<?xml version="1.0" encoding="UTF-8" standalone="no"?><svg xmlns="http://www.w3.org/2000/svg" xmlns:xlink="http://www.w3.org/1999/xlink" contentScriptType="application/ecmascript" contentStyleType="text/css" height="1365px" preserveAspectRatio="none" style="width:2079px;height:1365px;" version="1.1" viewBox="0 0 2079 1365" width="2079px" zoomAndPan="magnify"><defs><filter height="300%" id="fiz2lpnzhqfg1" width="300%" x="-1" y="-1"><feGaussianBlur result="blurOut" stdDeviation="2.8"/><feColorMatrix in="blurOut" result="blurOut2" type="matrix" values="0 0 0 0 0 0 0 0 0 0 0 0 0 0 0 0 0 0 .4 0"/><feOffset dx="5.6" dy="5.6" in="blurOut2" result="blurOut3"/><feBlend in="SourceGraphic" in2="blurOut3" mode="normal"/></filter></defs><g><!--MD5=[1bfae0302c4589f7061be8320367bb1f]
cluster Pattern Factory--><polygon fill="#FFFFFF" filter="url(#fiz2lpnzhqfg1)" points="763,387.8,921.2,387.8,931,420.8531,1556.8,420.8531,1556.8,970.2,763,970.2,763,387.8" style="stroke: #000000; stroke-width: 2.0999999999999996;"/><line style="stroke: #000000; stroke-width: 2.0999999999999996;" x1="763" x2="931" y1="420.8531" y2="420.8531"/><text fill="#000000" font-family="sans-serif" font-size="19.6" font-weight="bold" lengthAdjust="spacingAndGlyphs" textLength="149.8" x="768.6" y="410.9465">Pattern Factory</text><!--MD5=[b60af5adbcbd9e66879b7a68b1ab8338]
cluster Pattern Facade--><polygon fill="#FFFFFF" filter="url(#fiz2lpnzhqfg1)" points="796.6,757.4,953.4,757.4,963.2,790.4531,1509.2,790.4531,1509.2,936.6,796.6,936.6,796.6,757.4" style="stroke: #000000; stroke-width: 2.0999999999999996;"/><line style="stroke: #000000; stroke-width: 2.0999999999999996;" x1="796.6" x2="963.2" y1="790.4531" y2="790.4531"/><text fill="#000000" font-family="sans-serif" font-size="19.6" font-weight="bold" lengthAdjust="spacingAndGlyphs" textLength="148.4" x="802.2" y="780.5465">Pattern Facade</text><!--MD5=[6c1f2c02eb646d15e75bf997ce268b5a]
cluster Pattern Command--><polygon fill="#FFFFFF" filter="url(#fiz2lpnzhqfg1)" points="1227.8,33.6,1409.8,33.6,1419.6,66.6531,2048.2,66.6531,2048.2,341.6,1227.8,341.6,1227.8,33.6" style="stroke: #000000; stroke-width: 2.0999999999999996;"/><line style="stroke: #000000; stroke-width: 2.0999999999999996;" x1="1227.8" x2="1419.6" y1="66.6531" y2="66.6531"/><text fill="#000000" font-family="sans-serif" font-size="19.6" font-weight="bold" lengthAdjust="spacingAndGlyphs" textLength="173.6" x="1233.4" y="56.7465">Pattern Command</text><!--MD5=[b04028969a14a9de3efce61f7c0937a1]
cluster Pattern State--><polygon fill="#FFFFFF" filter="url(#fiz2lpnzhqfg1)" points="499.8,1016.4,635.6,1016.4,645.4,1049.4531,1023.4,1049.4531,1023.4,1348.2,499.8,1348.2,499.8,1016.4" style="stroke: #000000; stroke-width: 2.0999999999999996;"/><line style="stroke: #000000; stroke-width: 2.0999999999999996;" x1="499.8" x2="645.4" y1="1049.4531" y2="1049.4531"/><text fill="#000000" font-family="sans-serif" font-size="19.6" font-weight="bold" lengthAdjust="spacingAndGlyphs" textLength="127.4" x="505.4" y="1039.5465">Pattern State</text><!--MD5=[37d9b79c518aaf43ee230cb58af13913]
cluster Pattern Singleton--><polygon fill="#FFFFFF" filter="url(#fiz2lpnzhqfg1)" points="30.8,747.6,210,747.6,219.8,780.6531,729.4,780.6531,729.4,946.4,30.8,946.4,30.8,747.6" style="stroke: #000000; stroke-width: 2.0999999999999996;"/><line style="stroke: #000000; stroke-width: 2.0999999999999996;" x1="30.8" x2="219.8" y1="780.6531" y2="780.6531"/><text fill="#000000" font-family="sans-serif" font-size="19.6" font-weight="bold" lengthAdjust="spacingAndGlyphs" textLength="170.8" x="36.4" y="770.7465">Pattern Singleton</text><!--MD5=[8f799e92cf80bb96fc7c86757f5dca49]
cluster Payments--><polygon fill="#FFFFFF" filter="url(#fiz2lpnzhqfg1)" points="1167.6,1026.2,1269.8,1026.2,1279.6,1059.2531,1566.6,1059.2531,1566.6,1338.4,1167.6,1338.4,1167.6,1026.2" style="stroke: #000000; stroke-width: 2.0999999999999996;"/><line style="stroke: #000000; stroke-width: 2.0999999999999996;" x1="1167.6" x2="1279.6" y1="1059.2531" y2="1059.2531"/><text fill="#000000" font-family="sans-serif" font-size="19.6" font-weight="bold" lengthAdjust="spacingAndGlyphs" textLength="93.8" x="1173.2" y="1049.3465">Payments</text><!--MD5=[1337a0cce0671f1bf71893bca8a76aa6]
class Machine--><rect fill="#FEFECE" filter="url(#fiz2lpnzhqfg1)" height="67.2" id="Machine" style="stroke: #A80036; stroke-width: 2.0999999999999996;" width="109.2" x="1425.2" y="438.2"/><ellipse cx="1446.2" cy="460.6" fill="#ADD1B2" rx="15.4" ry="15.4" style="stroke: #A80036; stroke-width: 1.4;"/><path d="M1449,455.7 Q1449.2844,455 1449.6125,454.65 Q1449.9406,454.3 1450.3125,454.3 Q1450.9688,454.3 1451.3844,454.6937 Q1451.8,455.0875 1451.8,456.0062 L1451.8,458.1937 Q1451.8,459.1125 1451.4063,459.5062 Q1451.0125,459.9 1450.4,459.9 Q1449.8531,459.9 1449.5031,459.6594 Q1449.1531,459.4188 1449,458.7844 Q1448.9344,458.3469 1448.6938,458.1063 Q1448.2563,457.6469 1447.4688,457.3844 Q1446.6812,457.1 1445.8938,457.1 Q1444.9094,457.1 1444.0781,457.4938 Q1443.2688,457.8875 1442.6344,458.7625 Q1442,459.6375 1442,460.8406 L1442,462.1312 Q1442,463.575 1443.1812,464.5375 Q1444.3625,465.5 1446.4625,465.5 Q1447.7094,465.5 1448.5844,465.2156 Q1449.0875,465.0625 1449.6563,464.5594 Q1450.0281,464.275 1450.225,464.1875 Q1450.4219,464.1 1450.6625,464.1 Q1451.1219,464.1 1451.45,464.4719 Q1451.8,464.8219 1451.8,465.325 Q1451.8,465.8063 1451.3188,466.375 Q1450.6187,467.2062 1449.5031,467.6656 Q1448.0375,468.3 1446.2437,468.3 Q1444.1438,468.3 1442.4594,467.4687 Q1441.1031,466.8125 1440.1406,465.3906 Q1439.2,463.9687 1439.2,462.2844 L1439.2,460.7531 Q1439.2,459.0031 1440.0313,457.4719 Q1440.8844,455.9406 1442.35,455.1312 Q1443.8375,454.3 1445.5,454.3 Q1446.5063,454.3 1447.3813,454.65 Q1448.2563,455 1449,455.7 Z "/><text fill="#000000" font-family="sans-serif" font-size="16.8" lengthAdjust="spacingAndGlyphs" textLength="64.4" x="1465.8" y="467.4742">Machine</text><line style="stroke: #A80036; stroke-width: 2.0999999999999996;" x1="1426.6" x2="1533" y1="483" y2="483"/><line style="stroke: #A80036; stroke-width: 2.0999999999999996;" x1="1426.6" x2="1533" y1="494.2" y2="494.2"/><!--MD5=[80239a474f159a768dcd4df4e04d46d6]
class OrderFactory--><rect fill="#FEFECE" filter="url(#fiz2lpnzhqfg1)" height="67.2" id="OrderFactory" style="stroke: #A80036; stroke-width: 2.0999999999999996;" width="142.8" x="1265.6" y="590.8"/><ellipse cx="1286.6" cy="613.2" fill="#ADD1B2" rx="15.4" ry="15.4" style="stroke: #A80036; stroke-width: 1.4;"/><path d="M1289.4,608.3 Q1289.6844,607.6 1290.0125,607.25 Q1290.3406,606.9 1290.7125,606.9 Q1291.3687,606.9 1291.7844,607.2937 Q1292.2,607.6875 1292.2,608.6062 L1292.2,610.7937 Q1292.2,611.7125 1291.8062,612.1062 Q1291.4125,612.5 1290.8,612.5 Q1290.2531,612.5 1289.9031,612.2594 Q1289.5531,612.0188 1289.4,611.3844 Q1289.3344,610.9469 1289.0938,610.7063 Q1288.6563,610.2469 1287.8687,609.9844 Q1287.0813,609.7 1286.2937,609.7 Q1285.3094,609.7 1284.4781,610.0938 Q1283.6687,610.4875 1283.0344,611.3625 Q1282.4,612.2375 1282.4,613.4406 L1282.4,614.7312 Q1282.4,616.175 1283.5813,617.1375 Q1284.7625,618.1 1286.8625,618.1 Q1288.1094,618.1 1288.9844,617.8156 Q1289.4875,617.6625 1290.0562,617.1594 Q1290.4281,616.875 1290.625,616.7875 Q1290.8219,616.7 1291.0625,616.7 Q1291.5219,616.7 1291.85,617.0719 Q1292.2,617.4219 1292.2,617.925 Q1292.2,618.4063 1291.7188,618.975 Q1291.0188,619.8063 1289.9031,620.2656 Q1288.4375,620.9 1286.6438,620.9 Q1284.5437,620.9 1282.8594,620.0687 Q1281.5031,619.4125 1280.5406,617.9906 Q1279.6,616.5687 1279.6,614.8844 L1279.6,613.3531 Q1279.6,611.6031 1280.4312,610.0719 Q1281.2844,608.5406 1282.75,607.7312 Q1284.2375,606.9 1285.9,606.9 Q1286.9063,606.9 1287.7813,607.25 Q1288.6563,607.6 1289.4,608.3 Z "/><text fill="#000000" font-family="sans-serif" font-size="16.8" lengthAdjust="spacingAndGlyphs" textLength="98" x="1306.2" y="620.0742">OrderFactory</text><line style="stroke: #A80036; stroke-width: 2.0999999999999996;" x1="1267" x2="1407" y1="635.6" y2="635.6"/><line style="stroke: #A80036; stroke-width: 2.0999999999999996;" x1="1267" x2="1407" y1="646.8" y2="646.8"/><path d="M785.4,441.7 L785.4,501.4844 A0,0 0 0 0 785.4,501.4844 L1124.5976,501.4844 L1281.5264,590.5648 L1135.7976,501.4844 L1376.2,501.4844 A0,0 0 0 0 1376.2,501.4844 L1376.2,455.7 L1362.2,441.7 L785.4,441.7 A0,0 0 0 0 785.4,441.7 " fill="#FBFB77" filter="url(#fiz2lpnzhqfg1)" style="stroke: #A80036; stroke-width: 1.4;"/><path d="M1362.2,441.7 L1362.2,455.7 L1376.2,455.7 L1362.2,441.7 " fill="#FBFB77" style="stroke: #A80036; stroke-width: 1.4;"/><text fill="#000000" font-family="sans-serif" font-size="18.2" lengthAdjust="spacingAndGlyphs" textLength="561.4" x="793.8" y="467.5932">Na podstawie danych wejsciowych klasa decyduje jakiego typu klasy</text><text fill="#000000" font-family="sans-serif" font-size="18.2" lengthAdjust="spacingAndGlyphs" textLength="137.2" x="793.8" y="490.4854">'wlozyc' do Order</text><!--MD5=[cf4d6237fcae255cd2e1656cf84a30e2]
class Order--><rect fill="#FEFECE" filter="url(#fiz2lpnzhqfg1)" height="105.9406" id="Order" style="stroke: #A80036; stroke-width: 2.0999999999999996;" width="243.6" x="1243.2" y="807.8"/><ellipse cx="1337.35" cy="830.2" fill="#ADD1B2" rx="15.4" ry="15.4" style="stroke: #A80036; stroke-width: 1.4;"/><path d="M1340.15,825.3 Q1340.4344,824.6 1340.7625,824.25 Q1341.0906,823.9 1341.4625,823.9 Q1342.1187,823.9 1342.5344,824.2937 Q1342.95,824.6875 1342.95,825.6062 L1342.95,827.7937 Q1342.95,828.7125 1342.5562,829.1062 Q1342.1625,829.5 1341.55,829.5 Q1341.0031,829.5 1340.6531,829.2594 Q1340.3031,829.0188 1340.15,828.3844 Q1340.0844,827.9469 1339.8438,827.7063 Q1339.4063,827.2469 1338.6187,826.9844 Q1337.8313,826.7 1337.0437,826.7 Q1336.0594,826.7 1335.2281,827.0938 Q1334.4187,827.4875 1333.7844,828.3625 Q1333.15,829.2375 1333.15,830.4406 L1333.15,831.7312 Q1333.15,833.175 1334.3313,834.1375 Q1335.5125,835.1 1337.6125,835.1 Q1338.8594,835.1 1339.7344,834.8156 Q1340.2375,834.6625 1340.8062,834.1594 Q1341.1781,833.875 1341.375,833.7875 Q1341.5719,833.7 1341.8125,833.7 Q1342.2719,833.7 1342.6,834.0719 Q1342.95,834.4219 1342.95,834.925 Q1342.95,835.4063 1342.4688,835.975 Q1341.7688,836.8063 1340.6531,837.2656 Q1339.1875,837.9 1337.3938,837.9 Q1335.2937,837.9 1333.6094,837.0687 Q1332.2531,836.4125 1331.2906,834.9906 Q1330.35,833.5687 1330.35,831.8844 L1330.35,830.3531 Q1330.35,828.6031 1331.1812,827.0719 Q1332.0344,825.5406 1333.5,824.7312 Q1334.9875,823.9 1336.65,823.9 Q1337.6563,823.9 1338.5313,824.25 Q1339.4063,824.6 1340.15,825.3 Z "/><text fill="#000000" font-family="sans-serif" font-size="16.8" lengthAdjust="spacingAndGlyphs" textLength="43.4" x="1366.05" y="837.0742">Order</text><line style="stroke: #A80036; stroke-width: 2.0999999999999996;" x1="1244.6" x2="1485.4" y1="852.6" y2="852.6"/><line style="stroke: #A80036; stroke-width: 2.0999999999999996;" x1="1244.6" x2="1485.4" y1="863.8" y2="863.8"/><ellipse cx="1258.6" cy="879.2" fill="#84BE84" rx="4.2" ry="4.2" style="stroke: #038048; stroke-width: 1.4;"/><text fill="#000000" font-family="sans-serif" font-size="15.4" lengthAdjust="spacingAndGlyphs" textLength="207.2" x="1271.2" y="885.3865">Order(Payment,Product):Order</text><text fill="#000000" font-family="sans-serif" font-size="15.4" lengthAdjust="spacingAndGlyphs" textLength="130.2" x="1271.2" y="904.7568">evaluate(): boolean</text><path d="M819,808.5 L819,914.0687 A0,0 0 0 0 819,914.0687 L1194.2,914.0687 A0,0 0 0 0 1194.2,914.0687 L1194.2,866.6 L1242.7408,861 L1194.2,855.4 L1194.2,822.5 L1180.2,808.5 L819,808.5 A0,0 0 0 0 819,808.5 " fill="#FBFB77" filter="url(#fiz2lpnzhqfg1)" style="stroke: #A80036; stroke-width: 1.4;"/><path d="M1180.2,808.5 L1180.2,822.5 L1194.2,822.5 L1180.2,808.5 " fill="#FBFB77" style="stroke: #A80036; stroke-width: 1.4;"/><text fill="#000000" font-family="sans-serif" font-size="18.2" lengthAdjust="spacingAndGlyphs" textLength="345.8" x="827.4" y="834.3932">Fasada ukrywa wykonanie zadania jedynie</text><text fill="#000000" font-family="sans-serif" font-size="18.2" lengthAdjust="spacingAndGlyphs" textLength="323.4" x="827.4" y="857.2854">udosteniajac mozliwosc jego wykonania</text><text fill="#000000" font-family="sans-serif" font-size="18.2" lengthAdjust="spacingAndGlyphs" textLength="319.2" x="827.4" y="880.1775">Metoda evaluate ukrywa "szczegolowe"</text><text fill="#000000" font-family="sans-serif" font-size="18.2" lengthAdjust="spacingAndGlyphs" textLength="154" x="827.4" y="903.0697">wykonanie zadania</text><!--MD5=[c8b7557615b5dbe946e3a909d7cafe57]
class PaymentType--><rect fill="#FEFECE" filter="url(#fiz2lpnzhqfg1)" height="67.2" id="PaymentType" style="stroke: #A80036; stroke-width: 2.0999999999999996;" width="148.4" x="1250.2" y="91.7"/><ellipse cx="1271.2" cy="114.1" fill="#EB937F" rx="15.4" ry="15.4" style="stroke: #A80036; stroke-width: 1.4;"/><path d="M1269.1,115.5 L1269.1,118.3 L1274.7,118.3 L1274.7,116.9 L1274.7,116.2219 L1275.575,115.5 L1276.1,115.5 L1276.625,115.5 L1277.5,116.2219 L1277.5,116.9 L1277.5,121.1 L1266.3,121.1 L1265.6219,121.1 L1264.9,120.225 L1264.9,119.7 L1264.9,119.175 L1265.6219,118.3 L1266.3,118.3 L1266.3,118.3 L1266.3,109.9 L1266.3,109.9 L1265.6219,109.9 L1264.9,109.025 L1264.9,108.5 L1264.9,107.975 L1265.6219,107.1 L1266.3,107.1 L1277.5,107.1 L1277.5,111.3 L1277.5,111.9781 L1276.625,112.7 L1276.1,112.7 L1275.575,112.7 L1274.7,111.9781 L1274.7,111.3 L1274.7,109.9 L1269.1,109.9 L1269.1,112.7 L1270.5,112.7 L1270.5,112.0219 L1270.5,112.0219 L1271.375,111.3 L1271.9,111.3 L1272.425,111.3 L1273.3,112.0219 L1273.3,112.7 L1273.3,115.5 L1273.3,116.1781 L1272.425,116.9 L1272.425,116.9 L1271.9,116.9 L1271.375,116.9 L1270.5,116.1781 L1270.5,116.1781 L1270.5,115.5 L1269.1,115.5 Z "/><text fill="#000000" font-family="sans-serif" font-size="16.8" lengthAdjust="spacingAndGlyphs" textLength="103.6" x="1290.8" y="120.9742">PaymentType</text><line style="stroke: #A80036; stroke-width: 2.0999999999999996;" x1="1251.6" x2="1397.2" y1="136.5" y2="136.5"/><line style="stroke: #A80036; stroke-width: 2.0999999999999996;" x1="1251.6" x2="1397.2" y1="147.7" y2="147.7"/><!--MD5=[4513bff0e9cd9676e01bcabb74e1c0be]
class OrderDto--><rect fill="#FEFECE" filter="url(#fiz2lpnzhqfg1)" height="67.2" id="OrderDto" style="stroke: #A80036; stroke-width: 2.0999999999999996;" width="114.8" x="1337" y="252"/><ellipse cx="1358" cy="274.4" fill="#ADD1B2" rx="15.4" ry="15.4" style="stroke: #A80036; stroke-width: 1.4;"/><path d="M1360.8,269.5 Q1361.0844,268.8 1361.4125,268.45 Q1361.7406,268.1 1362.1125,268.1 Q1362.7688,268.1 1363.1844,268.4938 Q1363.6,268.8875 1363.6,269.8063 L1363.6,271.9938 Q1363.6,272.9125 1363.2063,273.3063 Q1362.8125,273.7 1362.2,273.7 Q1361.6531,273.7 1361.3031,273.4594 Q1360.9531,273.2188 1360.8,272.5844 Q1360.7344,272.1469 1360.4937,271.9063 Q1360.0562,271.4469 1359.2688,271.1844 Q1358.4812,270.9 1357.6938,270.9 Q1356.7094,270.9 1355.8781,271.2938 Q1355.0688,271.6875 1354.4344,272.5625 Q1353.8,273.4375 1353.8,274.6406 L1353.8,275.9313 Q1353.8,277.375 1354.9812,278.3375 Q1356.1625,279.3 1358.2625,279.3 Q1359.5094,279.3 1360.3844,279.0156 Q1360.8875,278.8625 1361.4563,278.3594 Q1361.8281,278.075 1362.025,277.9875 Q1362.2219,277.9 1362.4625,277.9 Q1362.9219,277.9 1363.25,278.2719 Q1363.6,278.6219 1363.6,279.125 Q1363.6,279.6063 1363.1187,280.175 Q1362.4187,281.0062 1361.3031,281.4656 Q1359.8375,282.1 1358.0437,282.1 Q1355.9438,282.1 1354.2594,281.2687 Q1352.9031,280.6125 1351.9406,279.1906 Q1351,277.7687 1351,276.0844 L1351,274.5531 Q1351,272.8031 1351.8313,271.2719 Q1352.6844,269.7406 1354.15,268.9313 Q1355.6375,268.1 1357.3,268.1 Q1358.3062,268.1 1359.1812,268.45 Q1360.0562,268.8 1360.8,269.5 Z "/><text fill="#000000" font-family="sans-serif" font-size="16.8" lengthAdjust="spacingAndGlyphs" textLength="70" x="1377.6" y="281.2742">OrderDto</text><line style="stroke: #A80036; stroke-width: 2.0999999999999996;" x1="1338.4" x2="1450.4" y1="296.8" y2="296.8"/><line style="stroke: #A80036; stroke-width: 2.0999999999999996;" x1="1338.4" x2="1450.4" y1="308" y2="308"/><!--MD5=[0278646e5a3f51edb25d463fe8c5bfab]
class MainController--><rect fill="#FEFECE" filter="url(#fiz2lpnzhqfg1)" height="67.2" id="MainController" style="stroke: #A80036; stroke-width: 2.0999999999999996;" width="156.8" x="1447.6" y="91.7"/><ellipse cx="1468.6" cy="114.1" fill="#ADD1B2" rx="15.4" ry="15.4" style="stroke: #A80036; stroke-width: 1.4;"/><path d="M1471.4,109.2 Q1471.6844,108.5 1472.0125,108.15 Q1472.3406,107.8 1472.7125,107.8 Q1473.3687,107.8 1473.7844,108.1938 Q1474.2,108.5875 1474.2,109.5063 L1474.2,111.6938 Q1474.2,112.6125 1473.8062,113.0063 Q1473.4125,113.4 1472.8,113.4 Q1472.2531,113.4 1471.9031,113.1594 Q1471.5531,112.9187 1471.4,112.2844 Q1471.3344,111.8469 1471.0938,111.6062 Q1470.6563,111.1469 1469.8687,110.8844 Q1469.0813,110.6 1468.2937,110.6 Q1467.3094,110.6 1466.4781,110.9937 Q1465.6687,111.3875 1465.0344,112.2625 Q1464.4,113.1375 1464.4,114.3406 L1464.4,115.6313 Q1464.4,117.075 1465.5813,118.0375 Q1466.7625,119 1468.8625,119 Q1470.1094,119 1470.9844,118.7156 Q1471.4875,118.5625 1472.0562,118.0594 Q1472.4281,117.775 1472.625,117.6875 Q1472.8219,117.6 1473.0625,117.6 Q1473.5219,117.6 1473.85,117.9719 Q1474.2,118.3219 1474.2,118.825 Q1474.2,119.3062 1473.7188,119.875 Q1473.0188,120.7063 1471.9031,121.1656 Q1470.4375,121.8 1468.6438,121.8 Q1466.5437,121.8 1464.8594,120.9687 Q1463.5031,120.3125 1462.5406,118.8906 Q1461.6,117.4687 1461.6,115.7844 L1461.6,114.2531 Q1461.6,112.5031 1462.4312,110.9719 Q1463.2844,109.4406 1464.75,108.6313 Q1466.2375,107.8 1467.9,107.8 Q1468.9063,107.8 1469.7813,108.15 Q1470.6563,108.5 1471.4,109.2 Z "/><text fill="#000000" font-family="sans-serif" font-size="16.8" lengthAdjust="spacingAndGlyphs" textLength="112" x="1488.2" y="120.9742">MainController</text><line style="stroke: #A80036; stroke-width: 2.0999999999999996;" x1="1449" x2="1603" y1="136.5" y2="136.5"/><line style="stroke: #A80036; stroke-width: 2.0999999999999996;" x1="1449" x2="1603" y1="147.7" y2="147.7"/><path d="M1653.4,84 L1653.4,119.7 L1604.4,125.3 L1653.4,130.9 L1653.4,166.6766 A0,0 0 0 0 1653.4,166.6766 L2025.8,166.6766 A0,0 0 0 0 2025.8,166.6766 L2025.8,98 L2011.8,84 L1653.4,84 A0,0 0 0 0 1653.4,84 " fill="#FBFB77" filter="url(#fiz2lpnzhqfg1)" style="stroke: #A80036; stroke-width: 1.4;"/><path d="M2011.8,84 L2011.8,98 L2025.8,98 L2011.8,84 " fill="#FBFB77" style="stroke: #A80036; stroke-width: 1.4;"/><text fill="#000000" font-family="sans-serif" font-size="18.2" lengthAdjust="spacingAndGlyphs" textLength="343" x="1661.8" y="109.8932">Wysyla polecania z interfejsu do Machine,</text><text fill="#000000" font-family="sans-serif" font-size="18.2" lengthAdjust="spacingAndGlyphs" textLength="169.4" x="1661.8" y="132.7854">ktory to "przetwarza"</text><text fill="#000000" font-family="sans-serif" font-size="18.2" lengthAdjust="spacingAndGlyphs" textLength="149.8" x="1661.8" y="155.6775">akcje uzytkownika</text><!--MD5=[72136138052d025cffdce3c22fbd185f]
class Product--><rect fill="#FEFECE" filter="url(#fiz2lpnzhqfg1)" height="86.5703" id="Product" style="stroke: #A80036; stroke-width: 2.0999999999999996;" width="149.8" x="850.5" y="1066.8"/><ellipse cx="892.29" cy="1089.2" fill="#ADD1B2" rx="15.4" ry="15.4" style="stroke: #A80036; stroke-width: 1.4;"/><path d="M895.09,1084.3 Q895.3744,1083.6 895.7025,1083.25 Q896.0306,1082.9 896.4025,1082.9 Q897.0587,1082.9 897.4744,1083.2937 Q897.89,1083.6875 897.89,1084.6062 L897.89,1086.7937 Q897.89,1087.7125 897.4962,1088.1062 Q897.1025,1088.5 896.49,1088.5 Q895.9431,1088.5 895.5931,1088.2594 Q895.2431,1088.0188 895.09,1087.3844 Q895.0244,1086.9469 894.7837,1086.7063 Q894.3462,1086.2469 893.5588,1085.9844 Q892.7713,1085.7 891.9838,1085.7 Q890.9994,1085.7 890.1681,1086.0938 Q889.3588,1086.4875 888.7244,1087.3625 Q888.09,1088.2375 888.09,1089.4406 L888.09,1090.7312 Q888.09,1092.175 889.2713,1093.1375 Q890.4525,1094.1 892.5525,1094.1 Q893.7994,1094.1 894.6744,1093.8156 Q895.1775,1093.6625 895.7463,1093.1594 Q896.1181,1092.875 896.315,1092.7875 Q896.5119,1092.7 896.7525,1092.7 Q897.2119,1092.7 897.54,1093.0719 Q897.89,1093.4219 897.89,1093.925 Q897.89,1094.4063 897.4087,1094.975 Q896.7088,1095.8062 895.5931,1096.2656 Q894.1275,1096.9 892.3338,1096.9 Q890.2338,1096.9 888.5494,1096.0688 Q887.1931,1095.4125 886.2306,1093.9906 Q885.29,1092.5688 885.29,1090.8844 L885.29,1089.3531 Q885.29,1087.6031 886.1213,1086.0719 Q886.9744,1084.5406 888.44,1083.7312 Q889.9275,1082.9 891.59,1082.9 Q892.5962,1082.9 893.4712,1083.25 Q894.3462,1083.6 895.09,1084.3 Z "/><text fill="#000000" font-family="sans-serif" font-size="16.8" lengthAdjust="spacingAndGlyphs" textLength="58.8" x="916.51" y="1096.0742">Product</text><line style="stroke: #A80036; stroke-width: 2.0999999999999996;" x1="851.9" x2="998.9" y1="1111.6" y2="1111.6"/><text fill="#000000" font-family="sans-serif" font-size="15.4" lengthAdjust="spacingAndGlyphs" textLength="133" x="858.9" y="1133.1865">state : ProductState</text><line style="stroke: #A80036; stroke-width: 2.0999999999999996;" x1="851.9" x2="998.9" y1="1142.1703" y2="1142.1703"/><path d="M522.9,1080.1 L522.9,1139.8844 A0,0 0 0 0 522.9,1139.8844 L801.5,1139.8844 A0,0 0 0 0 801.5,1139.8844 L801.5,1115.8 L850.3894,1110.2 L801.5,1104.6 L801.5,1094.1 L787.5,1080.1 L522.9,1080.1 A0,0 0 0 0 522.9,1080.1 " fill="#FBFB77" filter="url(#fiz2lpnzhqfg1)" style="stroke: #A80036; stroke-width: 1.4;"/><path d="M787.5,1080.1 L787.5,1094.1 L801.5,1094.1 L787.5,1080.1 " fill="#FBFB77" style="stroke: #A80036; stroke-width: 1.4;"/><text fill="#000000" font-family="sans-serif" font-size="18.2" lengthAdjust="spacingAndGlyphs" textLength="249.2" x="531.3" y="1105.9932">Zalezenie od stanu (state) inne</text><text fill="#000000" font-family="sans-serif" font-size="18.2" lengthAdjust="spacingAndGlyphs" textLength="159.6" x="531.3" y="1128.8854">zachowanie obiektu</text><!--MD5=[786e30b83efbdf262d05940ee8f61efa]
class ProductState--><rect fill="#FEFECE" filter="url(#fiz2lpnzhqfg1)" height="86.5703" id="ProductState" style="stroke: #A80036; stroke-width: 2.0999999999999996;" width="142.8" x="854" y="1239"/><ellipse cx="875" cy="1261.4" fill="#EB937F" rx="15.4" ry="15.4" style="stroke: #A80036; stroke-width: 1.4;"/><path d="M872.9,1262.8 L872.9,1265.6 L878.5,1265.6 L878.5,1264.2 L878.5,1263.5219 L879.375,1262.8 L879.9,1262.8 L880.425,1262.8 L881.3,1263.5219 L881.3,1264.2 L881.3,1268.4 L870.1,1268.4 L869.4219,1268.4 L868.7,1267.525 L868.7,1267 L868.7,1266.475 L869.4219,1265.6 L870.1,1265.6 L870.1,1265.6 L870.1,1257.2 L870.1,1257.2 L869.4219,1257.2 L868.7,1256.325 L868.7,1255.8 L868.7,1255.275 L869.4219,1254.4 L870.1,1254.4 L881.3,1254.4 L881.3,1258.6 L881.3,1259.2781 L880.425,1260 L879.9,1260 L879.375,1260 L878.5,1259.2781 L878.5,1258.6 L878.5,1257.2 L872.9,1257.2 L872.9,1260 L874.3,1260 L874.3,1259.3219 L874.3,1259.3219 L875.175,1258.6 L875.7,1258.6 L876.225,1258.6 L877.1,1259.3219 L877.1,1260 L877.1,1262.8 L877.1,1263.4781 L876.225,1264.2 L876.225,1264.2 L875.7,1264.2 L875.175,1264.2 L874.3,1263.4781 L874.3,1263.4781 L874.3,1262.8 L872.9,1262.8 Z "/><text fill="#000000" font-family="sans-serif" font-size="16.8" lengthAdjust="spacingAndGlyphs" textLength="98" x="894.6" y="1268.2742">ProductState</text><line style="stroke: #A80036; stroke-width: 2.0999999999999996;" x1="855.4" x2="995.4" y1="1283.8" y2="1283.8"/><rect fill="none" height="8.4" style="stroke: #C82930; stroke-width: 1.4;" width="8.4" x="865.2" y="1295"/><text fill="#000000" font-family="sans-serif" font-size="15.4" lengthAdjust="spacingAndGlyphs" textLength="37.8" x="882" y="1305.3865">Name</text><line style="stroke: #A80036; stroke-width: 2.0999999999999996;" x1="855.4" x2="995.4" y1="1314.3703" y2="1314.3703"/><!--MD5=[5d33c965b291e21ebb9cf7956cc6362b]
class ProductExtent--><rect fill="#FEFECE" filter="url(#fiz2lpnzhqfg1)" height="125.3109" id="ProductExtent" style="stroke: #A80036; stroke-width: 2.0999999999999996;" width="224" x="483" y="798"/><ellipse cx="537.39" cy="820.4" fill="#ADD1B2" rx="15.4" ry="15.4" style="stroke: #A80036; stroke-width: 1.4;"/><path d="M540.19,815.5 Q540.4744,814.8 540.8025,814.45 Q541.1306,814.1 541.5025,814.1 Q542.1587,814.1 542.5744,814.4938 Q542.99,814.8875 542.99,815.8063 L542.99,817.9938 Q542.99,818.9125 542.5962,819.3063 Q542.2025,819.7 541.59,819.7 Q541.0431,819.7 540.6931,819.4594 Q540.3431,819.2188 540.19,818.5844 Q540.1244,818.1469 539.8838,817.9063 Q539.4463,817.4469 538.6587,817.1844 Q537.8713,816.9 537.0838,816.9 Q536.0994,816.9 535.2681,817.2937 Q534.4588,817.6875 533.8244,818.5625 Q533.19,819.4375 533.19,820.6406 L533.19,821.9313 Q533.19,823.375 534.3713,824.3375 Q535.5525,825.3 537.6525,825.3 Q538.8994,825.3 539.7744,825.0156 Q540.2775,824.8625 540.8462,824.3594 Q541.2181,824.075 541.415,823.9875 Q541.6119,823.9 541.8525,823.9 Q542.3119,823.9 542.64,824.2719 Q542.99,824.6219 542.99,825.125 Q542.99,825.6062 542.5088,826.175 Q541.8088,827.0062 540.6931,827.4656 Q539.2275,828.1 537.4338,828.1 Q535.3338,828.1 533.6494,827.2688 Q532.2931,826.6125 531.3306,825.1906 Q530.39,823.7688 530.39,822.0844 L530.39,820.5531 Q530.39,818.8031 531.2213,817.2719 Q532.0744,815.7406 533.54,814.9313 Q535.0275,814.1 536.69,814.1 Q537.6963,814.1 538.5713,814.45 Q539.4463,814.8 540.19,815.5 Z "/><text fill="#000000" font-family="sans-serif" font-size="16.8" lengthAdjust="spacingAndGlyphs" textLength="105" x="564.41" y="827.2742">ProductExtent</text><line style="stroke: #A80036; stroke-width: 2.0999999999999996;" x1="484.4" x2="705.6" y1="842.8" y2="842.8"/><rect fill="none" height="8.4" style="stroke: #C82930; stroke-width: 1.4;" width="8.4" x="494.2" y="854"/><text fill="#000000" font-family="sans-serif" font-size="15.4" lengthAdjust="spacingAndGlyphs" textLength="93.8" x="511" y="864.3865">ProductExtent</text><line style="stroke: #A80036; stroke-width: 2.0999999999999996;" x1="484.4" x2="705.6" y1="873.3703" y2="873.3703"/><rect fill="#F24D5C" height="8.4" style="stroke: #C82930; stroke-width: 1.4;" width="8.4" x="494.2" y="884.5703"/><text fill="#000000" font-family="sans-serif" font-size="15.4" lengthAdjust="spacingAndGlyphs" textLength="105" x="511" y="894.9568">ProductExtent()</text><ellipse cx="498.4" cy="908.1406" fill="#84BE84" rx="4.2" ry="4.2" style="stroke: #038048; stroke-width: 1.4;"/><text fill="#000000" font-family="sans-serif" font-size="15.4" lengthAdjust="spacingAndGlyphs" text-decoration="underline" textLength="187.6" x="511" y="914.3271">getInstance():ProductExtent</text><path d="M53.2,830.9 L53.2,890.6844 A0,0 0 0 0 53.2,890.6844 L434,890.6844 A0,0 0 0 0 434,890.6844 L434,866.6 L482.7046,861 L434,855.4 L434,844.9 L420,830.9 L53.2,830.9 A0,0 0 0 0 53.2,830.9 " fill="#FBFB77" filter="url(#fiz2lpnzhqfg1)" style="stroke: #A80036; stroke-width: 1.4;"/><path d="M420,830.9 L420,844.9 L434,844.9 L420,830.9 " fill="#FBFB77" style="stroke: #A80036; stroke-width: 1.4;"/><text fill="#000000" font-family="sans-serif" font-size="18.2" lengthAdjust="spacingAndGlyphs" textLength="298.2" x="61.6" y="856.7932">Nie pozawala na stworzenie instancji</text><text fill="#000000" font-family="sans-serif" font-size="18.2" lengthAdjust="spacingAndGlyphs" textLength="351.4" x="61.6" y="879.6854">oprocz jednej globalnej i globanie dostepnej</text><!--MD5=[764fca796ce7f635542948d8fc39db5e]
class Payment--><rect fill="#FEFECE" filter="url(#fiz2lpnzhqfg1)" height="67.2" id="Payment" style="stroke: #A80036; stroke-width: 2.0999999999999996;" width="113.4" x="1308.3" y="1076.6"/><ellipse cx="1329.3" cy="1099" fill="#B4A7E5" rx="15.4" ry="15.4" style="stroke: #A80036; stroke-width: 1.4;"/><path d="M1330.7,1094.8 L1330.7,1103.2 L1333.5,1103.2 L1334.1781,1103.2 L1334.9,1104.075 L1334.9,1104.6 L1334.9,1105.125 L1334.1781,1106 L1333.5,1106 L1325.1,1106 L1324.4219,1106 L1323.7,1105.125 L1323.7,1104.6 L1323.7,1104.075 L1324.4219,1103.2 L1325.1,1103.2 L1327.9,1103.2 L1327.9,1094.8 L1325.1,1094.8 L1324.4219,1094.8 L1323.7,1093.925 L1323.7,1093.4 L1323.7,1092.875 L1324.4219,1092 L1325.1,1092 L1333.5,1092 L1334.1781,1092 L1334.9,1092.875 L1334.9,1093.4 L1334.9,1093.925 L1334.1781,1094.8 L1333.5,1094.8 L1330.7,1094.8 Z "/><text fill="#000000" font-family="sans-serif" font-size="16.8" font-style="italic" lengthAdjust="spacingAndGlyphs" textLength="68.6" x="1348.9" y="1105.8742">Payment</text><line style="stroke: #A80036; stroke-width: 2.0999999999999996;" x1="1309.7" x2="1420.3" y1="1121.4" y2="1121.4"/><line style="stroke: #A80036; stroke-width: 2.0999999999999996;" x1="1309.7" x2="1420.3" y1="1132.6" y2="1132.6"/><!--MD5=[5213af0feef2264e577ccf2e3fd4a785]
class CardPayment--><rect fill="#FEFECE" filter="url(#fiz2lpnzhqfg1)" height="67.2" id="CardPayment" style="stroke: #A80036; stroke-width: 2.0999999999999996;" width="149.8" x="1190.7" y="1248.8"/><ellipse cx="1211.7" cy="1271.2" fill="#ADD1B2" rx="15.4" ry="15.4" style="stroke: #A80036; stroke-width: 1.4;"/><path d="M1214.5,1266.3 Q1214.7844,1265.6 1215.1125,1265.25 Q1215.4406,1264.9 1215.8125,1264.9 Q1216.4688,1264.9 1216.8844,1265.2937 Q1217.3,1265.6875 1217.3,1266.6062 L1217.3,1268.7937 Q1217.3,1269.7125 1216.9063,1270.1062 Q1216.5125,1270.5 1215.9,1270.5 Q1215.3531,1270.5 1215.0031,1270.2594 Q1214.6531,1270.0188 1214.5,1269.3844 Q1214.4344,1268.9469 1214.1938,1268.7063 Q1213.7563,1268.2469 1212.9688,1267.9844 Q1212.1812,1267.7 1211.3938,1267.7 Q1210.4094,1267.7 1209.5781,1268.0938 Q1208.7688,1268.4875 1208.1344,1269.3625 Q1207.5,1270.2375 1207.5,1271.4406 L1207.5,1272.7312 Q1207.5,1274.175 1208.6812,1275.1375 Q1209.8625,1276.1 1211.9625,1276.1 Q1213.2094,1276.1 1214.0844,1275.8156 Q1214.5875,1275.6625 1215.1563,1275.1594 Q1215.5281,1274.875 1215.725,1274.7875 Q1215.9219,1274.7 1216.1625,1274.7 Q1216.6219,1274.7 1216.95,1275.0719 Q1217.3,1275.4219 1217.3,1275.925 Q1217.3,1276.4063 1216.8188,1276.975 Q1216.1187,1277.8062 1215.0031,1278.2656 Q1213.5375,1278.9 1211.7437,1278.9 Q1209.6438,1278.9 1207.9594,1278.0688 Q1206.6031,1277.4125 1205.6406,1275.9906 Q1204.7,1274.5688 1204.7,1272.8844 L1204.7,1271.3531 Q1204.7,1269.6031 1205.5313,1268.0719 Q1206.3844,1266.5406 1207.85,1265.7312 Q1209.3375,1264.9 1211,1264.9 Q1212.0063,1264.9 1212.8813,1265.25 Q1213.7563,1265.6 1214.5,1266.3 Z "/><text fill="#000000" font-family="sans-serif" font-size="16.8" lengthAdjust="spacingAndGlyphs" textLength="105" x="1231.3" y="1278.0742">CardPayment</text><line style="stroke: #A80036; stroke-width: 2.0999999999999996;" x1="1192.1" x2="1339.1" y1="1293.6" y2="1293.6"/><line style="stroke: #A80036; stroke-width: 2.0999999999999996;" x1="1192.1" x2="1339.1" y1="1304.8" y2="1304.8"/><!--MD5=[ceb5d973f95c5878810ab896853340d2]
class CashPayment--><rect fill="#FEFECE" filter="url(#fiz2lpnzhqfg1)" height="67.2" id="CashPayment" style="stroke: #A80036; stroke-width: 2.0999999999999996;" width="154" x="1390.2" y="1248.8"/><ellipse cx="1411.2" cy="1271.2" fill="#ADD1B2" rx="15.4" ry="15.4" style="stroke: #A80036; stroke-width: 1.4;"/><path d="M1414,1266.3 Q1414.2844,1265.6 1414.6125,1265.25 Q1414.9406,1264.9 1415.3125,1264.9 Q1415.9688,1264.9 1416.3844,1265.2937 Q1416.8,1265.6875 1416.8,1266.6062 L1416.8,1268.7937 Q1416.8,1269.7125 1416.4063,1270.1062 Q1416.0125,1270.5 1415.4,1270.5 Q1414.8531,1270.5 1414.5031,1270.2594 Q1414.1531,1270.0188 1414,1269.3844 Q1413.9344,1268.9469 1413.6938,1268.7063 Q1413.2563,1268.2469 1412.4688,1267.9844 Q1411.6812,1267.7 1410.8938,1267.7 Q1409.9094,1267.7 1409.0781,1268.0938 Q1408.2688,1268.4875 1407.6344,1269.3625 Q1407,1270.2375 1407,1271.4406 L1407,1272.7312 Q1407,1274.175 1408.1812,1275.1375 Q1409.3625,1276.1 1411.4625,1276.1 Q1412.7094,1276.1 1413.5844,1275.8156 Q1414.0875,1275.6625 1414.6563,1275.1594 Q1415.0281,1274.875 1415.225,1274.7875 Q1415.4219,1274.7 1415.6625,1274.7 Q1416.1219,1274.7 1416.45,1275.0719 Q1416.8,1275.4219 1416.8,1275.925 Q1416.8,1276.4063 1416.3188,1276.975 Q1415.6187,1277.8062 1414.5031,1278.2656 Q1413.0375,1278.9 1411.2437,1278.9 Q1409.1438,1278.9 1407.4594,1278.0688 Q1406.1031,1277.4125 1405.1406,1275.9906 Q1404.2,1274.5688 1404.2,1272.8844 L1404.2,1271.3531 Q1404.2,1269.6031 1405.0313,1268.0719 Q1405.8844,1266.5406 1407.35,1265.7312 Q1408.8375,1264.9 1410.5,1264.9 Q1411.5063,1264.9 1412.3813,1265.25 Q1413.2563,1265.6 1414,1266.3 Z "/><text fill="#000000" font-family="sans-serif" font-size="16.8" lengthAdjust="spacingAndGlyphs" textLength="109.2" x="1430.8" y="1278.0742">CashPayment</text><line style="stroke: #A80036; stroke-width: 2.0999999999999996;" x1="1391.6" x2="1542.8" y1="1293.6" y2="1293.6"/><line style="stroke: #A80036; stroke-width: 2.0999999999999996;" x1="1391.6" x2="1542.8" y1="1304.8" y2="1304.8"/><!--MD5=[2f8c190bbe9a95229f80c007c58c00ee]
reverse link Product to ProductState--><path d="M925.4,1161.3616 C925.4,1185.9022 925.4,1215.1888 925.4,1238.6424 " fill="none" id="Product&lt;-ProductState" style="stroke: #A80036; stroke-width: 1.4; stroke-dasharray: 7.0,7.0;"/><polygon fill="#A80036" points="925.4,1153.9094,919.8,1166.5094,925.4,1160.9094,931,1166.5094,925.4,1153.9094" style="stroke: #A80036; stroke-width: 1.4;"/><!--MD5=[891181ef188282c430adce5aa8cc67f8]
reverse link ProductExtent to Product--><path d="M723.2498,933.744 C757.8116,955.0646 794.3642,979.6234 826,1005.2 C848.6786,1023.5344 871.3908,1046.7506 889.3668,1066.555 " fill="none" id="ProductExtent&lt;-Product" style="stroke: #A80036; stroke-width: 1.4;"/><polygon fill="#A80036" points="707.5362,924.1848,711.802,933.3348,721.8889,932.9164,717.6231,923.7664,707.5362,924.1848" style="stroke: #A80036; stroke-width: 1.4;"/><!--MD5=[1de7b9d243b2cd860e52f938a3d5660e]
link Payment to CardPayment--><path d="M1346.0692,1143.8616 C1328.495,1173.8118 1302.4578,1218.1848 1284.7982,1248.2816 " fill="none" id="Payment-CardPayment" style="stroke: #A80036; stroke-width: 1.4; stroke-dasharray: 7.0,7.0;"/><!--MD5=[776647463019b5b42f1f3fdfd2ef8d22]
link Payment to CashPayment--><path d="M1384.4642,1143.8616 C1402.5326,1173.8118 1429.302,1218.1848 1447.46,1248.2816 " fill="none" id="Payment-CashPayment" style="stroke: #A80036; stroke-width: 1.4; stroke-dasharray: 7.0,7.0;"/><!--MD5=[2dd35b9e342a33989aa9b5490e0b19cd]
link Order to Payment--><path d="M1365,914.655 C1365,963.6746 1365,1035.4246 1365,1076.579 " fill="none" id="Order-Payment" style="stroke: #A80036; stroke-width: 1.4;"/><text fill="#000000" font-family="sans-serif" font-size="18.2" lengthAdjust="spacingAndGlyphs" textLength="9.8" x="1354.4191" y="943.9603">1</text><text fill="#000000" font-family="sans-serif" font-size="18.2" lengthAdjust="spacingAndGlyphs" textLength="9.8" x="1353.9444" y="1061.6498">1</text><!--MD5=[5df16df72a49edaa4f00919f1e597f76]
link Order to Product--><path d="M1308.3294,914.2882 C1282.0752,936.7036 1249.717,962.1458 1218,981.4 C1207.9956,987.4732 1083.6826,1041.0498 1000.3448,1076.7638 " fill="none" id="Order-Product" style="stroke: #A80036; stroke-width: 1.4;"/><text fill="#000000" font-family="sans-serif" font-size="18.2" lengthAdjust="spacingAndGlyphs" textLength="9.8" x="1288.3318" y="943.941">1</text><text fill="#000000" font-family="sans-serif" font-size="18.2" lengthAdjust="spacingAndGlyphs" textLength="9.8" x="1011.573" y="1067.0308">1</text><!--MD5=[ca9d9defc260e08d8e026113a8237933]
reverse link Machine to Order--><path d="M1487.612,523.8534 C1493.576,576.0412 1497.146,658.896 1472.8,725.2 C1461.67,755.5254 1440.74,784.1834 1420.272,807.184 " fill="none" id="Machine&lt;-Order" style="stroke: #A80036; stroke-width: 1.4;"/><polygon fill="#A80036" points="1485.26,505.4518,1480.7703,514.4941,1487.3902,522.1162,1491.8799,513.0739,1485.26,505.4518" style="stroke: #A80036; stroke-width: 1.4;"/><text fill="#000000" font-family="sans-serif" font-size="18.2" lengthAdjust="spacingAndGlyphs" textLength="9.8" x="1475.5965" y="535.3376">1</text><text fill="#000000" font-family="sans-serif" font-size="18.2" lengthAdjust="spacingAndGlyphs" textLength="7" x="1422.1703" y="792.5843">*</text><!--MD5=[12428cb048936224288b49aa98d67888]
reverse link Machine to OrderFactory--><path d="M1443.638,511.1386 C1420.272,535.6526 1390.179,567.2142 1367.9246,590.5592 " fill="none" id="Machine&lt;-OrderFactory" style="stroke: #A80036; stroke-width: 1.4;"/><polygon fill="#A80036" points="1448.818,505.7038,1436.0672,510.9514,1443.9847,510.7673,1444.1688,518.6847,1448.818,505.7038" style="stroke: #A80036; stroke-width: 1.4;"/><text fill="#000000" font-family="sans-serif" font-size="18.2" lengthAdjust="spacingAndGlyphs" textLength="9.8" x="1430.2718" y="535.651">1</text><text fill="#000000" font-family="sans-serif" font-size="18.2" lengthAdjust="spacingAndGlyphs" textLength="9.8" x="1364.7934" y="575.5737">1</text><!--MD5=[f72047070bee124741d6651ababda3fc]
link OrderFactory to Order--><path d="M1334.7628,658.2898 C1333.9732,671.258 1333.1864,686.329 1332.8,700 C1332.4836,711.1958 1331.4868,714.077 1332.8,725.2 C1335.7582,750.2488 1341.718,777.3892 1347.7128,800.6796 " fill="none" id="OrderFactory-&gt;Order" style="stroke: #A80036; stroke-width: 1.4; stroke-dasharray: 7.0,7.0;"/><polygon fill="#A80036" points="1349.572,807.7776,1351.7962,794.1698,1347.7981,801.0061,1340.9618,797.008,1349.572,807.7776" style="stroke: #A80036; stroke-width: 1.4;"/><text fill="#000000" font-family="sans-serif" font-size="18.2" lengthAdjust="spacingAndGlyphs" textLength="131.6" x="1334.2" y="720.2932">Produkuje Order</text><!--MD5=[9d501fcc554298f599b343a645de1254]
link MainController to Machine--><path d="M1521.66,159.0344 C1512.854,224.5404 1492.988,372.2572 1484.168,437.9004 " fill="none" id="MainController-Machine" style="stroke: #A80036; stroke-width: 1.4;"/><text fill="#000000" font-family="sans-serif" font-size="18.2" lengthAdjust="spacingAndGlyphs" textLength="9.8" x="1509.6078" y="188.9403">1</text><text fill="#000000" font-family="sans-serif" font-size="18.2" lengthAdjust="spacingAndGlyphs" textLength="9.8" x="1474.2317" y="422.8999">1</text><!--MD5=[51b6f59f55e259ff83f6b93dea9e416f]
link MainController to OrderDto--><path d="M1499.05,158.9532 C1477.938,184.2204 1448.51,219.4388 1426.236,246.0976 " fill="none" id="MainController-&gt;OrderDto" style="stroke: #A80036; stroke-width: 1.4; stroke-dasharray: 7.0,7.0;"/><polygon fill="#A80036" points="1421.308,251.9902,1433.6906,245.9247,1425.8019,246.6232,1425.1034,238.7344,1421.308,251.9902" style="stroke: #A80036; stroke-width: 1.4;"/><!--MD5=[21e4834be4b22c8f5532361dbc584072]
link OrderDto to Machine--><path d="M1409.478,319.3666 C1424.01,350.602 1446.06,397.9332 1461.572,431.2686 " fill="none" id="OrderDto-&gt;Machine" style="stroke: #A80036; stroke-width: 1.4; stroke-dasharray: 7.0,7.0;"/><polygon fill="#A80036" points="1464.596,437.7408,1464.347,423.9546,1461.638,431.3965,1454.1961,428.6875,1464.596,437.7408" style="stroke: #A80036; stroke-width: 1.4;"/><!--MD5=[bcd62ff339647f5acf00081c9b659ec3]
link PaymentType to OrderDto--><path d="M1338.7346,158.9532 C1350.8138,186.1314 1368.01,224.8232 1380.085,251.9902 " fill="none" id="PaymentType-OrderDto" style="stroke: #A80036; stroke-width: 1.4;"/><text fill="#000000" font-family="sans-serif" font-size="18.2" lengthAdjust="spacingAndGlyphs" textLength="9.8" x="1331.2343" y="188.8393">1</text><text fill="#000000" font-family="sans-serif" font-size="18.2" lengthAdjust="spacingAndGlyphs" textLength="7" x="1368.5199" y="237.0639">*</text><!--MD5=[a870fbe92473689ebe5febb747dc66ec]
@startuml

package "Pattern Factory"{
    class Machine{}
    package "Pattern Facade"{
        class Order{

            +Order(Payment,Product):Order
            evaluate(): boolean
        }
        note left: Fasada ukrywa wykonanie zadania jedynie\nudosteniajac mozliwosc jego wykonania\nMetoda evaluate ukrywa "szczegolowe"\nwykonanie zadania
    }
    class OrderFactory{}
    note "Na podstawie danych wejsciowych klasa decyduje jakiego typu klasy\n'wlozyc' do Order" as N1
    N1 .. OrderFactory
}
package "Pattern Command" {
    enum PaymentType{}
    class OrderDto{}
    class MainController{}
    note right: Wysyla polecania z interfejsu do Machine,\nktory to "przetwarza"\nakcje uzytkownika
}
package "Pattern State"{
    class Product{
    state : ProductState
    }
    note left: Zalezenie od stanu (state) inne\nzachowanie obiektu
    enum ProductState{
        -Name
    }
    Product<..ProductState
}
package "Pattern Singleton" {
    class ProductExtent{
        - ProductExtent
        -ProductExtent()
      {static}  +getInstance():ProductExtent
    }
    note left: Nie pozawala na stworzenie instancji\noprocz jednej globalnej i globanie dostepnej
}
ProductExtent *- - Product
package Payments {
interface Payment{}
class CardPayment{}
class CashPayment{}
 Payment .. CardPayment
Payment .. CashPayment
}
Order "1"- -"1" Payment
Order "1"- -"1" Product
Machine "1"*- -"*"Order
Machine "1"<- -"1" OrderFactory
OrderFactory ..> Order: Produkuje Order
MainController "1"- -"1" Machine
MainController..>OrderDto
OrderDto..>Machine
PaymentType "1"- -"*"OrderDto

@enduml

PlantUML version 1.2020.09(Sun May 10 12:51:06 CEST 2020)
(GPL source distribution)
Java Runtime: OpenJDK Runtime Environment
JVM: OpenJDK 64-Bit Server VM
Java Version: 11.0.7+10-b765.53
Operating System: Windows 10
Default Encoding: Cp1252
Language: en
Country: US
--></g></svg>